HIERARCHY
ROOT hip
{
  OFFSET 0 0 0
  CHANNELS 6 Xposition Yposition Zposition Zrotation Yrotation Xrotation
  JOINT abdomen
  {
    OFFSET 0 20.6881 -0.73152
    CHANNELS 3 Zrotation Xrotation Yrotation
    JOINT chest
    {
      OFFSET 0 11.7043 -0.48768
      CHANNELS 3 Zrotation Xrotation Yrotation
      JOINT neck
      {
        OFFSET 0 22.1894 -2.19456
        CHANNELS 3 Zrotation Xrotation Yrotation
        JOINT head
        {
          OFFSET -0.24384 7.07133 1.2192
          CHANNELS 3 Zrotation Xrotation Yrotation
          JOINT leftEye
          {
            OFFSET 4.14528 8.04674 8.04672
            CHANNELS 3 Zrotation Xrotation Yrotation
            End Site
            {
              OFFSET 1 0 0
            }
          }
          JOINT rightEye
          {
            OFFSET -3.6576 8.04674 8.04672
            CHANNELS 3 Zrotation Xrotation Yrotation
            End Site
            {
              OFFSET 1 0 0
            }
          }
        }
      }
      JOINT rCollar
      {
        OFFSET -2.68224 19.2634 -4.8768
        CHANNELS 3 Zrotation Xrotation Yrotation
        JOINT rShldr
        {
          OFFSET -8.77824 -1.95073 1.46304
          CHANNELS 3 Zrotation Xrotation Yrotation
          JOINT rForeArm
          {
            OFFSET -28.1742 -1.7115 0.48768
            CHANNELS 3 Zrotation Xrotation Yrotation
            JOINT rHand
            {
              OFFSET -22.5879 0.773209 7.07136
              CHANNELS 3 Zrotation Xrotation Yrotation
              JOINT rThumb1
              {
                OFFSET -1.2192 -0.487915 3.41376
                CHANNELS 3 Zrotation Xrotation Yrotation
                JOINT rThumb2
                {
                  OFFSET -3.37035 -0.52449 3.41376
                  CHANNELS 3 Zrotation Xrotation Yrotation
                  End Site
                  {
                    OFFSET -1.78271 -1.18214 1.43049
                  }
                }
              }
              JOINT rIndex1
              {
                OFFSET -7.75947 0.938293 5.60832
                CHANNELS 3 Zrotation Xrotation Yrotation
                JOINT rIndex2
                {
                  OFFSET -2.54057 -0.884171 1.56538
                  CHANNELS 3 Zrotation Xrotation Yrotation
                  End Site
                  {
                    OFFSET -1.62519 -0.234802 1.16502
                  }
                }
              }
              JOINT rMid1
              {
                OFFSET -8.24714 1.18213 3.41376
                CHANNELS 3 Zrotation Xrotation Yrotation
                JOINT rMid2
                {
                  OFFSET -3.10165 -0.590103 1.0647
                  CHANNELS 3 Zrotation Xrotation Yrotation
                  End Site
                  {
                    OFFSET -2.48547 -0.328903 0.83742
                  }
                }
              }
              JOINT rRing1
              {
                OFFSET -8.82822 0.546677 1.51678
                CHANNELS 3 Zrotation Xrotation Yrotation
                JOINT rRing2
                {
                  OFFSET -2.60934 -0.819778 -0.0198488
                  CHANNELS 3 Zrotation Xrotation Yrotation
                  End Site
                  {
                    OFFSET -2.33842 -0.294052 0.168128
                  }
                }
              }
              JOINT rPinky1
              {
                OFFSET -8.27202 -0.0477905 -0.4584
                CHANNELS 3 Zrotation Xrotation Yrotation
                JOINT rPinky2
                {
                  OFFSET -1.82734 -0.647385 -0.700984
                  CHANNELS 3 Zrotation Xrotation Yrotation
                  End Site
                  {
                    OFFSET -1.69225 -0.51767 -0.607171
                  }
                }
              }
            }
          }
        }
      }
      JOINT lCollar
      {
        OFFSET 2.68224 19.2634 -4.8768
        CHANNELS 3 Zrotation Xrotation Yrotation
        JOINT lShldr
        {
          OFFSET 8.77824 -1.95073 1.46304
          CHANNELS 3 Zrotation Xrotation Yrotation
          JOINT lForeArm
          {
            OFFSET 28.1742 -1.7115 0.48768
            CHANNELS 3 Zrotation Xrotation Yrotation
            JOINT lHand
            {
              OFFSET 22.5879 0.773209 7.07136
              CHANNELS 3 Zrotation Xrotation Yrotation
              JOINT lThumb1
              {
                OFFSET 1.2192 -0.487915 3.41376
                CHANNELS 3 Zrotation Xrotation Yrotation
                JOINT lThumb2
                {
                  OFFSET 3.37035 -0.52449 3.41376
                  CHANNELS 3 Zrotation Xrotation Yrotation
                  End Site
                  {
                    OFFSET 1.78271 -1.18214 1.43049
                  }
                }
              }
              JOINT lIndex1
              {
                OFFSET 7.75947 0.938293 5.60832
                CHANNELS 3 Zrotation Xrotation Yrotation
                JOINT lIndex2
                {
                  OFFSET 2.54057 -0.884171 1.56538
                  CHANNELS 3 Zrotation Xrotation Yrotation
                  End Site
                  {
                    OFFSET 1.62519 -0.234802 1.16502
                  }
                }
              }
              JOINT lMid1
              {
                OFFSET 8.24714 1.18213 3.41376
                CHANNELS 3 Zrotation Xrotation Yrotation
                JOINT lMid2
                {
                  OFFSET 3.10165 -0.590103 1.0647
                  CHANNELS 3 Zrotation Xrotation Yrotation
                  End Site
                  {
                    OFFSET 2.48547 -0.328903 0.83742
                  }
                }
              }
              JOINT lRing1
              {
                OFFSET 8.82822 0.546677 1.51678
                CHANNELS 3 Zrotation Xrotation Yrotation
                JOINT lRing2
                {
                  OFFSET 2.60934 -0.819778 -0.0198488
                  CHANNELS 3 Zrotation Xrotation Yrotation
                  End Site
                  {
                    OFFSET 2.33842 -0.294052 0.168128
                  }
                }
              }
              JOINT lPinky1
              {
                OFFSET 8.27202 -0.0477905 -0.4584
                CHANNELS 3 Zrotation Xrotation Yrotation
                JOINT lPinky2
                {
                  OFFSET 1.82734 -0.647385 -0.700984
                  CHANNELS 3 Zrotation Xrotation Yrotation
                  End Site
                  {
                    OFFSET 1.69225 -0.51767 -0.607171
                  }
                }
              }
            }
          }
        }
      }
    }
  }
  JOINT rButtock
  {
    OFFSET -8.77824 4.35084 1.2192
    CHANNELS 3 Zrotation Xrotation Yrotation
    JOINT rThigh
    {
      OFFSET 0 -1.70687 -2.19456
      CHANNELS 3 Zrotation Xrotation Yrotation
      JOINT rShin
      {
        OFFSET 0 -36.8199 0.73152
        CHANNELS 3 Zrotation Xrotation Yrotation
        JOINT rFoot
        {
          OFFSET 0.73152 -45.1104 -5.12064
          CHANNELS 3 Zrotation Xrotation Yrotation
          End Site
          {
            OFFSET -1.1221 -3.69964 12.103
          }
        }
      }
    }
  }
  JOINT lButtock
  {
    OFFSET 8.77824 4.35084 1.2192
    CHANNELS 3 Zrotation Xrotation Yrotation
    JOINT lThigh
    {
      OFFSET 0 -1.70687 -2.19456
      CHANNELS 3 Zrotation Xrotation Yrotation
      JOINT lShin
      {
        OFFSET 0 -36.8199 0.73152
        CHANNELS 3 Zrotation Xrotation Yrotation
        JOINT lFoot
        {
          OFFSET -0.73152 -45.1104 -5.12064
          CHANNELS 3 Zrotation Xrotation Yrotation
          End Site
          {
            OFFSET 1.1221 -3.69964 12.103
          }
        }
      }
    }
  }
}
MOTION
Frames:	5
Frame Time:	0.00833333
-3.11225 84.2564 37.0871 0.0 0.0 0.0 -1.24151 -0.00398118 -0.0340789 -0.342494 -0.00249262 -0.0593273 -9.75039e-15 -1.59028e-15 -1.11816e-16 -2.96251e-14 3.18055e-15 -3.26131e-16 -0.0 0.0 0.0 -0.0 0.0 0.0 -5.1204e-15 -3.41661e-17 1.49089e-16 -1.02216e-13 -1.07468e-15 -7.95139e-16 -1.77843e-12 5.09883e-13 -2.22639e-14 -2.04022e-11 -6.61058e-13 -2.38542e-13 -4.81155e-11 -3.2266e-13 -5.27972e-13 -8.30932e-11 -5.59778e-13 -9.12024e-13 -4.81047e-11 -3.17658e-13 -5.37514e-13 7.73091 5.47488 0.417314 -4.81146e-11 -3.22131e-13 -5.24792e-13 2.90554 0.965183 0.102902 -4.81056e-11 -3.21832e-13 -5.24792e-13 10.2786 0.731801 0.0259123 -4.81152e-11 -3.24019e-13 -5.12069e-13 2.22167 -0.733487 -0.20892 -5.21672e-15 -3.84369e-17 -2.48481e-16 -1.05773e-13 -9.75287e-16 -2.18663e-15 -1.78434e-12 -5.61964e-13 2.54444e-14 -2.03928e-11 3.89469e-13 -2.63986e-13 -4.81043e-11 -3.71159e-13 -5.1843e-13 -8.30677e-11 -6.39292e-13 -8.92146e-13 -4.81111e-11 -3.69342e-13 -5.1525e-13 -7.73091 5.47488 -0.417314 -4.81059e-11 -3.70634e-13 -5.21611e-13 -2.90554 0.965183 -0.102902 -4.81135e-11 -3.69938e-13 -5.17635e-13 -10.2786 0.731801 -0.0259123 -4.81035e-11 -3.7133e-13 -5.27972e-13 -2.22167 -0.733487 0.20892 -2.03217e-16 0.0 -3.88251e-19 -0.453809 -1.92099 -0.00952763 -0.00915583 -2.07857 -0.0755541 -0.487485 3.99699 0.136658 2.03217e-16 0.0 3.88251e-19 -1.43725 -5.97115 0.129661 -0.0012644 5.25796 -0.0454154 0.507794 0.710742 -0.0722714
-5.38712 84.0271 36.8717 -4.0827 -4.7584 -0.9685 -0.410433 0.20827 1.39495 -0.407487 -0.797521 0.354976 0.349017 0.968206 -0.50105 0.47321 -0.0601305 -1.0648 -0.0 0.0 0.0 -0.0 0.0 0.0 -4.31306e-14 1.46878e-15 -4.47906e-14 23.4247 7.6851 -4.37547 -6.48872 -3.60499 9.32096 0.0363851 4.23331 0.589102 1.60647e-10 -2.45544e-10 6.46363e-11 2.78193e-10 -4.22573e-10 1.08642e-10 1.60657e-10 -2.45541e-10 6.46261e-11 7.73091 5.47488 0.417314 1.60648e-10 -2.45546e-10 6.46388e-11 2.90554 0.965183 0.102902 1.60657e-10 -2.45546e-10 6.46386e-11 10.2786 0.731801 0.0259123 1.60646e-10 -2.45547e-10 6.46495e-11 2.22167 -0.733487 -0.20892 -4.32147e-14 1.46644e-15 -4.51497e-14 -23.3245 7.08886 2.62639 5.68153 -2.95949 -8.42508 -0.0340919 4.0976 -0.570573 1.48554e-10 3.24849e-10 1.00764e-10 2.57239e-10 5.60366e-10 1.71632e-10 1.48546e-10 3.2485e-10 1.00769e-10 -7.73091 5.47488 -0.417314 1.48553e-10 3.24848e-10 1.00762e-10 -2.90554 0.965183 -0.102902 1.48545e-10 3.24849e-10 1.00765e-10 -10.2786 0.731801 -0.0259123 1.48554e-10 3.24848e-10 1.00757e-10 -2.22167 -0.733487 0.20892 -2.03217e-16 0.0 -3.88251e-19 -6.23139 -2.22894 -0.0110524 -0.00647542 -1.68623 -0.0562752 -0.234006 3.91111 0.0981361 2.03217e-16 0.0 3.88251e-19 1.53912 -5.95959 -1.95063 -0.021203 10.213 -0.191149 0.841294 -5.44736 4.28295
-5.38783 84.0271 36.8722 -4.0898 -4.7456 -0.9697 0.455265 0.431762 2.90498 -0.463236 -1.63683 0.793006 0.735662 1.98866 -1.03188 0.968742 -0.116489 -2.19163 -0.0 0.0 0.0 -0.0 0.0 0.0 -8.50654e-14 3.23928e-15 -9.32518e-14 49.5034 15.6579 -9.26615 -12.0886 -7.09777 19.2902 -0.0208046 8.70689 1.22263 3.90902e-10 -5.16614e-10 1.36396e-10 6.76668e-10 -8.89061e-10 2.29265e-10 3.90911e-10 -5.16614e-10 1.36385e-10 7.73091 5.47488 0.417314 3.90903e-10 -5.16619e-10 1.36397e-10 2.90554 0.965183 0.102902 3.90912e-10 -5.16619e-10 1.36397e-10 10.2786 0.731801 0.0259123 3.90899e-10 -5.16619e-10 1.36406e-10 2.22167 -0.733487 -0.20892 -8.51372e-14 3.23913e-15 -9.35717e-14 -48.7094 14.5335 5.53953 10.7513 -5.87448 -17.4022 0.019485 8.42812 -1.18355 3.65318e-10 6.84352e-10 2.14624e-10 6.32381e-10 1.18055e-09 3.65628e-10 3.65309e-10 6.84352e-10 2.14631e-10 -7.73091 5.47488 -0.417314 3.65317e-10 6.8435e-10 2.14624e-10 -2.90554 0.965183 -0.102902 3.6531e-10 6.84351e-10 2.14626e-10 -10.2786 0.731801 -0.0259123 3.65318e-10 6.84351e-10 2.14621e-10 -2.22167 -0.733487 0.20892 -2.03217e-16 0.0 -3.88251e-19 -12.3391 -2.55447 -0.0126656 -0.00392906 -1.27147 -0.0359064 0.0338029 3.82031 0.0574261 2.03217e-16 0.0 3.88251e-19 4.68536 -5.93923 -4.15039 -0.0138294 15.4507 -0.351892 2.22758 -11.8434 9.04183
-5.39044 84.0263 36.8701 -4.1036 -4.7379 -0.9608 1.22 0.631214 4.25324 -0.502958 -2.38711 1.18451 1.0979 2.90373 -1.50487 1.41293 -0.180142 -3.19443 -0.0 0.0 0.0 -0.0 0.0 0.0 -1.19151e-13 4.47467e-15 -1.3467e-13 74.0052 22.4955 -14.1009 -16.0613 -9.67172 28.3455 -0.157525 12.6945 1.80666 5.78172e-10 -7.35987e-10 1.94965e-10 1.00077e-09 -1.2666e-09 3.27749e-10 5.78181e-10 -7.35989e-10 1.94953e-10 7.73091 5.47488 0.417314 5.78173e-10 -7.35994e-10 1.94966e-10 2.90554 0.965183 0.102902 5.78182e-10 -7.35995e-10 1.94966e-10 10.2786 0.731801 0.0259123 5.78168e-10 -7.35994e-10 1.94973e-10 2.22167 -0.733487 -0.20892 -1.19211e-13 4.4762e-15 -1.34952e-13 -72.035 21.0813 8.38365 14.5059 -8.11212 -25.5146 0.147403 12.2879 -1.74739 5.4187e-10 9.75289e-10 3.03328e-10 9.37852e-10 1.68238e-09 5.1668e-10 5.4186e-10 9.75288e-10 3.03336e-10 -7.73091 5.47488 -0.417314 5.41869e-10 9.75286e-10 3.0333e-10 -2.90554 0.965183 -0.102902 5.41863e-10 9.75287e-10 3.0333e-10 -10.2786 0.731801 -0.0259123 5.4187e-10 9.75288e-10 3.03327e-10 -2.22167 -0.733487 0.20892 -2.03217e-16 0.0 -3.88251e-19 -17.7866 -2.84485 -0.0141049 -0.00190665 -0.90154 -0.0177458 0.272604 3.73934 0.0211172 2.03217e-16 0.0 3.88251e-19 7.49473 -5.91318 -6.11081 0.0192092 20.1225 -0.504722 4.40109 -17.3426 13.5628
-5.39456 84.0261 36.8693 -4.1146 -4.7556 -0.9589 1.75455 0.772041 5.19687 -0.526876 -2.91525 1.45881 1.36335 3.55619 -1.83163 1.73223 -0.262203 -3.88716 -0.0 0.0 0.0 -0.0 0.0 0.0 -1.33614e-13 4.37229e-15 -1.58481e-13 91.8555 27.0266 -17.867 -18.323 -11.04 34.7503 -0.302913 15.4724 2.22951 6.5798e-10 -8.2612e-10 2.20559e-10 1.13892e-09 -1.42176e-09 3.70883e-10 6.57988e-10 -8.26123e-10 2.20546e-10 7.73091 5.47488 0.417314 6.57981e-10 -8.26128e-10 2.20559e-10 2.90554 0.965183 0.102902 6.57989e-10 -8.2613e-10 2.20559e-10 10.2786 0.731801 0.0259123 6.57975e-10 -8.26128e-10 2.20565e-10 2.22167 -0.733487 -0.20892 -1.33661e-13 4.37423e-15 -1.5873e-13 -88.7183 25.5626 10.5758 16.7334 -9.38681 -31.2366 0.2832 14.9754 -2.15444 6.17894e-10 1.09481e-09 3.2914e-10 1.06914e-09 1.88832e-09 5.60377e-10 6.17883e-10 1.09481e-09 3.29149e-10 -7.73091 5.47488 -0.417314 6.17894e-10 1.09481e-09 3.29143e-10 -2.90554 0.965183 -0.102902 6.17888e-10 1.09481e-09 3.29142e-10 -10.2786 0.731801 -0.0259123 6.17894e-10 1.09481e-09 3.2914e-10 -2.22167 -0.733487 0.20892 -2.03217e-16 0.0 -3.88251e-19 -21.5835 -3.04735 -0.0151076 -0.000635405 -0.643665 -0.00508794 0.439132 3.68299 -0.00420606 2.03217e-16 0.0 3.88251e-19 9.45971 -5.88936 -7.47321 0.0582859 23.3801 -0.618654 6.46868 -21.004 16.9366
